<svg width="202" height="152" viewBox="0 0 202 152" fill="none" xmlns="http://www.w3.org/2000/svg">
<g clip-path="url(#clip0_1_38)">
<path d="M132.333 50.6667C132.333 33.1867 116.753 19 97.5 19C78.2467 19 62.6667 33.1867 62.6667 50.6667H75.3333L81.6667 44.3333L88 50.6667H113.333" stroke="black" stroke-width="2" stroke-linecap="round" stroke-linejoin="round"/>
<path d="M132.333 45.22C138.747 40.4785 146.525 37.9451 154.5 38C173.753 38 189.333 52.1867 189.333 69.6667H170.333L164 63.3333L157.667 69.6667H138.667" stroke="black" stroke-width="2" stroke-linecap="round" stroke-linejoin="round"/>
<path d="M87.3033 61.4967C73.6867 75.1133 72.7367 96.14 85.0867 108.553L111.94 81.6367L116.373 77.2033L120.87 72.7067L134.297 59.28C121.947 46.8667 100.92 47.88 87.3033 61.4967Z" stroke="black" stroke-width="2" stroke-linecap="round" stroke-linejoin="round"/>
<path d="M119.667 98.1667C122.833 114 118.59 126.667 113.333 139.333H138.667C151.333 104.5 135.5 63.3333 132.333 50.6667" stroke="black" stroke-width="2" stroke-linecap="round" stroke-linejoin="round"/>
<g clip-path="url(#clip1_1_38)">
<path d="M59.2605 77.999C59.2259 76.9625 59.1023 76.0474 59.612 75.0989C60.1547 74.3515 60.9575 73.8356 61.8575 73.6558C62.2589 73.5148 62.6211 73.2777 62.9125 72.9652C63.2039 72.6527 63.4156 72.2743 63.5292 71.863C63.6427 71.4518 63.6547 71.0202 63.564 70.6059C63.4733 70.1917 63.2827 69.8073 63.0089 69.4865C63.3189 69.1868 63.5396 68.8064 63.6454 68.389C63.7512 67.9717 63.7379 67.5343 63.6071 67.1273C63.4762 66.7203 63.2331 66.3602 62.9057 66.0884C62.5783 65.8166 62.1799 65.6442 61.7564 65.5909C61.8802 65.2171 61.9063 64.8187 61.832 64.4344C61.7578 64.0501 61.5858 63.6928 61.3326 63.3972C61.0794 63.1015 60.7537 62.8775 60.3869 62.7468C60.0202 62.6161 59.6248 62.5831 59.239 62.6511C59.1943 62.3556 59.092 62.0726 58.9378 61.8183C58.7837 61.564 58.5808 61.3434 58.3407 61.1689C58.1006 60.9945 57.8281 60.8697 57.5386 60.8017C57.2491 60.7337 56.9483 60.7238 56.6535 60.7726C56.3587 60.8214 56.0756 60.9279 55.8203 61.086C55.5651 61.2441 55.3427 61.4508 55.1658 61.6942C54.8086 62.1858 54.6587 62.7972 54.749 63.3939C54.362 63.4538 53.9957 63.6128 53.6854 63.8555C53.3752 64.0982 53.1315 64.4165 52.978 64.7794C52.8245 65.1423 52.7664 65.5377 52.8093 65.9272C52.8521 66.3167 52.9945 66.6872 53.2227 67.0028C52.8356 67.1901 52.5076 67.4828 52.2765 67.847C52.0453 68.2112 51.9204 68.6322 51.9161 69.0615C51.9118 69.4909 52.0284 69.9112 52.2522 70.274C52.4761 70.6368 52.7983 70.9274 53.1817 71.1123C53.0195 71.504 52.954 71.9282 52.9909 72.3483C53.0277 72.7684 53.1658 73.1719 53.3932 73.5241C53.6207 73.8762 53.9306 74.1665 54.2964 74.3698C54.6622 74.5732 55.073 74.6836 55.4932 74.6915C56.4004 74.7082 57.4254 74.7166 58.0699 75.354C58.8227 76.1226 58.9884 76.9809 59.2605 77.999Z" stroke="black" stroke-width="2" stroke-linecap="round" stroke-linejoin="round"/>
<path d="M59.2605 77.999L57.1969 64.3633" stroke="black" stroke-width="2" stroke-linecap="round" stroke-linejoin="round"/>
</g>
<path d="M80 139H90" stroke="black" stroke-width="2" stroke-linecap="round" stroke-linejoin="round"/>
<path d="M83 139C88.5 136.5 83.8 132.6 86 129" stroke="black" stroke-width="2" stroke-linecap="round" stroke-linejoin="round"/>
<path d="M82.5 128.4C83.6 129.2 84.3 130.6 84.8 132.1C82.8 132.5 81.3 132.5 80 131.8C78.8 131.2 77.7 129.9 77 127.6C79.8 127.1 81.4 127.6 82.5 128.4Z" stroke="black" stroke-width="2" stroke-linecap="round" stroke-linejoin="round"/>
<path d="M87.1 125C86.3376 126.192 85.9541 127.586 86 129C87.9 128.9 89.3 128.4 90.3 127.6C91.3 126.6 91.9 125.3 92 123C89.3 123.1 88 124 87.1 125Z" stroke="black" stroke-width="2" stroke-linecap="round" stroke-linejoin="round"/>
</g>
<g clip-path="url(#clip2_1_38)">
<path d="M60.9502 116.469C61.5554 114.821 61.5713 113.024 60.9949 111.435C60.4185 109.846 59.2919 108.582 57.8384 107.892C56.3849 107.202 54.7109 107.138 53.1482 107.711C51.5855 108.285 50.2483 109.455 49.4019 110.989C46.5061 116 45.5457 117.247 42.728 118.35C44.1066 119.916 45.6401 121.538 48.9266 122.734C53.6585 124.457 59.1649 121.374 60.9502 116.469Z" stroke="black" stroke-width="2" stroke-linecap="round" stroke-linejoin="round"/>
<path d="M64.8888 108.325C62.3077 107.385 59.6446 108.385 57.9893 111.22C56.7486 113.343 54.5858 115.217 53.3835 115.843" stroke="black" stroke-width="2" stroke-linecap="round" stroke-linejoin="round"/>
</g>
<path d="M27.3333 92.6667C26.1627 92.6698 25.0335 92.2878 24.1697 91.5965C23.3059 90.9052 22.7705 89.9551 22.6698 88.9346C22.5691 87.9141 22.9105 86.8977 23.6261 86.0871C24.3417 85.2765 25.3794 84.7308 26.5333 84.5583C30.3333 83.9167 31.3333 83.6133 32.6667 82.1667C33.3333 83.3333 34 84.605 34 86.8333C34 90.0417 30.8133 92.6667 27.3333 92.6667Z" stroke="black" stroke-width="2" stroke-linecap="round" stroke-linejoin="round"/>
<path d="M21.3333 93.25C21.3333 91.5 22.5667 90.1233 24.72 89.75C26.3333 89.47 28 88.5833 28.6667 88" stroke="black" stroke-width="2" stroke-linecap="round" stroke-linejoin="round"/>
<g clip-path="url(#clip3_1_38)">
<path d="M1.08333 115.917C1.76041 115.382 2.31291 114.847 3.19583 114.725C3.96019 114.725 4.69602 115.015 5.25417 115.538C5.54382 115.74 5.87873 115.869 6.22968 115.913C6.58062 115.957 6.93692 115.914 7.26747 115.788C7.59802 115.662 7.89278 115.458 8.12601 115.192C8.35923 114.926 8.52384 114.607 8.60546 114.263C8.9569 114.326 9.31889 114.288 9.64977 114.154C9.98065 114.02 10.267 113.795 10.4758 113.506C10.6846 113.216 10.8075 112.873 10.8302 112.517C10.8529 112.161 10.7746 111.806 10.6042 111.492C10.9147 111.391 11.1941 111.213 11.4153 110.973C11.6364 110.733 11.792 110.44 11.8667 110.122C11.9415 109.805 11.9331 109.473 11.8422 109.16C11.7513 108.846 11.581 108.562 11.3479 108.333C11.524 108.157 11.6636 107.948 11.7589 107.718C11.8542 107.488 11.9032 107.242 11.9032 106.993C11.9032 106.744 11.8542 106.497 11.7589 106.267C11.6636 106.037 11.524 105.828 11.3479 105.652C11.1719 105.476 10.9629 105.336 10.7328 105.241C10.5028 105.146 10.2563 105.097 10.0073 105.097C9.50446 105.097 9.02222 105.297 8.66667 105.652C8.43834 105.419 8.1537 105.249 7.8403 105.158C7.5269 105.067 7.19534 105.058 6.87771 105.133C6.56008 105.208 6.26713 105.364 6.02721 105.585C5.78729 105.806 5.60852 106.085 5.50821 106.396C5.1945 106.225 4.83907 106.147 4.48281 106.17C4.12655 106.193 3.78395 106.315 3.49442 106.524C3.20489 106.733 2.9802 107.019 2.84622 107.35C2.71223 107.681 2.67439 108.043 2.73704 108.395C2.39593 108.478 2.08012 108.642 1.81678 108.875C1.55344 109.107 1.35047 109.399 1.22534 109.727C1.10021 110.055 1.05666 110.409 1.09844 110.758C1.14023 111.106 1.26609 111.439 1.46521 111.729C1.89529 112.353 2.38821 113.052 2.275 113.804C2.12658 114.694 1.63258 115.23 1.08333 115.917Z" stroke="black" stroke-width="2" stroke-linecap="round" stroke-linejoin="round"/>
<path d="M1.08333 115.917L9.20833 107.792" stroke="black" stroke-width="2" stroke-linecap="round" stroke-linejoin="round"/>
</g>
<g clip-path="url(#clip4_1_38)">
<path d="M37.8549 56.8218C38.9975 57.0683 40.191 56.8764 41.1987 56.2841C42.2064 55.6918 42.9547 54.7424 43.2952 53.6241C43.6357 52.5059 43.5434 51.3006 43.0368 50.2472C42.5302 49.1938 41.6461 48.3693 40.56 47.9372C37.0008 46.4321 36.0961 45.8859 35.1371 43.9943C34.2092 45.1581 33.2563 46.4392 32.7276 48.9265C31.9664 52.5077 34.456 56.0994 37.8549 56.8218Z" stroke="black" stroke-width="2" stroke-linecap="round" stroke-linejoin="round"/>
<path d="M43.5767 58.7186C43.9919 56.7652 43.1139 54.9725 41.0993 54.1087C39.59 53.4613 38.1726 52.1255 37.6598 51.336" stroke="black" stroke-width="2" stroke-linecap="round" stroke-linejoin="round"/>
</g>
<defs>
<clipPath id="clip0_1_38">
<rect width="152" height="152" fill="white" transform="translate(50)"/>
</clipPath>
<clipPath id="clip1_1_38">
<rect width="15.7097" height="15.495" fill="white" transform="translate(47 70.7094) rotate(-54)"/>
</clipPath>
<clipPath id="clip2_1_38">
<rect width="24" height="21.9733" fill="white" transform="matrix(-0.34202 0.939693 0.939693 0.34202 47.5057 99.8696)"/>
</clipPath>
<clipPath id="clip3_1_38">
<rect width="13" height="13" fill="white" transform="translate(0 104)"/>
</clipPath>
<clipPath id="clip4_1_38">
<rect width="15.9763" height="15.9763" fill="white" transform="matrix(-0.978148 -0.207912 -0.207912 0.978148 47.7854 45.3217)"/>
</clipPath>
</defs>
</svg>
